<svg xmlns="http://www.w3.org/2000/svg" version="1.0" width="355.93749968567863" height="321.5625000349246" preserveAspectRatio="xMidYMid meet" style=""><rect id="backgroundrect" width="100%" height="100%" x="0" y="0" fill="none" stroke="none"/>
<metadata>
Created by potrace 1.15, written by Peter Selinger 2001-2017
</metadata>

<g class="currentLayer" style=""><title>Layer 1</title><g transform="translate(0,320) scale(0.10000000149011612,-0.10000000149011612) " fill="#000099" stroke="none" id="svg_1" class="" fill-opacity="1">
<path d="M3374 2603 c-46 -49 -84 -85 -84 -81 0 3 -13 -6 -28 -20 -50 -47 -96 -83 -139 -109 -24 -14 -43 -29 -43 -34 0 -5 -7 -9 -16 -9 -8 0 -39 -16 -68 -35 -29 -19 -58 -35 -65 -35 -6 0 -11 -3 -11 -8 0 -8 -65 -38 -115 -54 -48 -14 -306 -79 -329 -83 -12 -1 -28 -5 -36 -8 -8 -3 -31 -8 -50 -10 -34 -5 -56 -10 -230 -59 -47 -13 -116 -42 -155 -63 -74 -42 -198 -152 -221 -197 -7 -14 -21 -33 -29 -42 -9 -9 -34 -51 -57 -93 -22 -43 -43 -82 -47 -88 -4 -5 -13 -30 -20 -55 -7 -25 -17 -54 -21 -65 -60 -153 -116 -438 -103 -522 6 -34 23 -46 23 -17 0 9 6 22 14 28 8 6 29 39 48 74 18 35 38 72 45 84 13 24 48 69 81 104 12 14 22 27 22 29 0 9 125 125 134 125 4 0 22 12 40 27 32 27 219 119 271 133 38 11 117 35 175 54 25 8 72 22 105 31 33 10 65 21 70 25 6 4 35 15 65 25 52 17 253 111 294 138 24 15 54 38 71 55 8 6 16 12 19 12 18 0 131 101 177 158 100 125 239 356 239 398 0 8 5 14 10 14 6 0 10 11 10 25 0 14 4 25 8 25 9 0 35 57 36 80 1 8 4 20 8 25 6 9 11 64 9 93 -2 26 -26 9 -107 -75z" id="svg_2" fill="#000099" fill-opacity="1"/>
<path d="M170 2629 c-7 -11 -9 -23 -7 -26 3 -2 1 -17 -4 -32 -7 -21 -3 -67 16 -176 14 -82 25 -168 25 -192 0 -25 5 -43 11 -43 8 0 8 -4 0 -14 -14 -17 -21 -140 -10 -180 5 -17 13 -66 19 -109 5 -43 23 -119 40 -170 36 -104 53 -179 51 -219 -1 -20 4 -28 15 -28 12 0 15 -6 10 -25 -5 -19 -3 -23 9 -19 8 4 15 1 15 -6 0 -6 11 -26 25 -44 14 -18 25 -36 25 -40 0 -10 62 -100 72 -104 4 -2 8 -11 8 -19 0 -20 72 -106 167 -201 40 -40 73 -74 73 -76 0 -2 53 -58 118 -123 104 -107 176 -203 221 -294 7 -14 23 -39 35 -54 23 -29 23 -29 35 -7 23 43 -29 386 -75 492 -55 126 -82 178 -118 225 -52 66 -196 211 -281 282 -135 114 -217 203 -268 297 -16 28 -35 58 -43 67 -8 9 -12 24 -8 33 3 9 2 16 -4 16 -18 0 -21 28 -6 47 14 17 15 17 9 -4 -5 -19 -2 -23 14 -23 12 0 21 -5 21 -12 0 -6 20 -32 44 -57 24 -25 61 -64 82 -87 22 -22 53 -49 69 -60 37 -23 129 -96 133 -106 2 -5 8 -8 14 -8 23 0 238 -195 238 -217 0 -6 8 -18 18 -25 9 -7 26 -29 36 -48 35 -64 60 -115 61 -125 5 -39 55 -135 72 -135 14 0 15 14 10 137 -4 76 -9 149 -12 163 -3 14 -8 43 -11 65 -4 22 -10 50 -15 63 -5 13 -9 35 -9 49 0 22 -15 67 -59 178 -46 115 -146 250 -203 275 -16 7 -28 16 -28 20 0 4 -18 15 -40 25 -22 10 -40 21 -40 26 0 4 -27 20 -60 36 -33 15 -60 31 -60 35 0 5 -7 8 -15 8 -12 0 -108 91 -204 195 -17 18 -72 104 -111 173 -8 15 -17 29 -20 32 -3 3 -16 32 -29 65 -13 33 -31 67 -41 75 -9 9 -16 23 -14 33 3 23 -3 21 -16 -4z" id="svg_3" fill="#000099" fill-opacity="1"/>
<path d="M3343 2074 c-7 -7 -13 -15 -13 -18 0 -6 -100 -155 -115 -172 -5 -6 -23 -29 -40 -50 -16 -21 -50 -57 -74 -79 -24 -22 -60 -56 -81 -75 -40 -38 -64 -55 -97 -69 -11 -6 -24 -15 -28 -21 -4 -6 -17 -16 -28 -21 -12 -6 -40 -21 -62 -34 -37 -23 -58 -34 -110 -56 -11 -5 -60 -23 -110 -39 -49 -17 -104 -37 -122 -45 -17 -8 -38 -15 -46 -15 -9 0 -18 -4 -21 -9 -3 -5 -29 -14 -56 -21 -28 -7 -69 -21 -91 -31 -47 -23 -82 -37 -89 -35 -3 0 -18 -8 -35 -20 -16 -11 -46 -28 -66 -37 -20 -9 -63 -35 -95 -57 -33 -23 -70 -48 -84 -57 -34 -22 -134 -127 -180 -188 -31 -43 -103 -173 -132 -240 -11 -27 -38 -112 -48 -155 -5 -19 -13 -53 -19 -75 -5 -22 -12 -70 -16 -107 -5 -57 -3 -68 12 -76 14 -8 23 -3 47 31 64 87 220 221 331 282 39 21 72 42 75 45 5 5 52 28 165 80 147 68 263 122 279 131 10 6 64 36 120 66 56 30 113 64 127 74 14 10 29 16 33 12 3 -3 6 -1 6 5 0 6 26 31 57 54 32 24 65 50 74 58 51 46 128 124 159 160 19 23 50 58 67 78 18 19 36 45 39 56 4 11 13 26 20 34 8 7 32 46 55 85 23 40 51 88 63 107 19 32 59 116 99 210 61 141 79 288 30 234z" id="svg_4" fill="#000099" fill-opacity="1"/>
<path d="M315 1295 c4 -115 16 -181 52 -280 13 -38 30 -91 36 -117 7 -26 18 -53 25 -60 6 -6 12 -17 12 -22 0 -35 98 -187 170 -264 48 -52 140 -122 159 -122 7 0 38 -13 69 -28 99 -50 132 -48 132 5 0 13 -54 100 -70 113 -3 3 -34 38 -68 78 -35 41 -76 86 -91 101 -55 54 -189 219 -217 267 -15 27 -31 51 -34 54 -3 3 -21 34 -38 70 -18 36 -43 85 -57 110 -14 25 -25 52 -25 62 0 9 -4 20 -10 23 -5 3 -10 19 -10 36 0 16 -5 29 -12 29 -9 0 -8 4 2 10 13 8 13 10 -2 10 -9 0 -19 6 -22 13 -3 6 -3 -33 -1 -88z" id="svg_5" fill="#000099" fill-opacity="1"/>
<path d="M3072 1198 c-7 -7 -12 -20 -12 -30 0 -10 -7 -18 -15 -18 -8 0 -15 -5 -15 -11 0 -32 -225 -263 -335 -344 -22 -17 -49 -38 -60 -48 -11 -10 -33 -26 -50 -34 -16 -8 -53 -33 -81 -54 -28 -22 -56 -39 -62 -39 -11 0 -74 -31 -82 -41 -5 -7 -52 -28 -147 -69 -29 -12 -53 -27 -53 -33 0 -6 -3 -8 -6 -4 -4 3 -26 -5 -49 -18 -24 -13 -61 -30 -83 -37 -38 -13 -50 -21 -142 -93 -25 -19 -59 -45 -77 -57 -18 -13 -35 -34 -38 -46 -11 -44 9 -52 121 -52 97 0 294 23 316 36 6 4 40 15 77 25 81 22 181 63 224 92 45 31 131 100 135 110 2 4 8 7 13 7 8 0 46 37 120 117 85 93 190 270 288 486 17 37 31 74 31 82 0 7 5 17 10 20 14 9 12 41 -3 54 -10 8 -17 7 -25 -1z" id="svg_6" fill="#000099" fill-opacity="1"/>
</g></g></svg>